<?xml version="1.0" encoding="utf-8"?>
<!-- Generator: Adobe Illustrator 25.0.0, SVG Export Plug-In . SVG Version: 6.00 Build 0)  -->
<svg version="1.1" id="Capa_1" xmlns="http://www.w3.org/2000/svg" xmlns:xlink="http://www.w3.org/1999/xlink" x="0px" y="0px"
	 viewBox="0 0 145 29" style="enable-background:new 0 0 145 29;" xml:space="preserve">
<style type="text/css">
	.st0{fill:#0068A2;}
	.st1{fill:#FFFFFF;}
	.st2{fill:#F7B318;}
	.st3{fill:#E59D35;}
</style>
<g>
	<g>
		<path class="st0" d="M138.2,28.2H6.3c-3,0-5.4-2.4-5.4-5.4V6.4c0-3,2.4-5.4,5.4-5.4h131.9c3,0,5.4,2.4,5.4,5.4v16.3
			C143.6,25.7,141.2,28.2,138.2,28.2z"/>
		<path class="st1" d="M138.2,28.5H6.3c-3.2,0-5.8-2.6-5.8-5.8V6.4c0-3.2,2.6-5.8,5.8-5.8h131.9c3.2,0,5.8,2.6,5.8,5.8v16.3
			C144,25.9,141.4,28.5,138.2,28.5z M6.3,1.3c-2.8,0-5.1,2.3-5.1,5.1v16.3c0,2.8,2.3,5.1,5.1,5.1h131.9c2.8,0,5.1-2.3,5.1-5.1V6.4
			c0-2.8-2.3-5.1-5.1-5.1H6.3z"/>
	</g>
	<g>
		<g>
			<rect x="122.7" y="10.6" class="st1" width="9" height="8.4"/>
			<g>
				<path class="st2" d="M126.7,7c-4.1,0-7.5,3.4-7.5,7.5c0,4.1,3.4,7.5,7.5,7.5c0.6,0,1.5,0,2.5,0l-6.2-6.2v-2.7h2.3v-2.3h2.7
					l6.2,6.2c0-1,0-1.9,0-2.5C134.2,10.4,130.8,7,126.7,7z"/>
				<path class="st3" d="M128.2,13.2l3.1,0v2.9h-3.1v2.7H125v-2.7h-3l5.9,5.9c2.3,0,6.2,0,6.2,0s0-3.8,0-6.1l-5.9-6V13.2z"/>
			</g>
			<g>
				<g>
					
						<rect x="125.1" y="9.9" transform="matrix(-1.836970e-16 1 -1 -1.836970e-16 141.2102 -112.0943)" class="st1" width="3.2" height="9.2"/>
				</g>
				<g>
					
						<rect x="125.1" y="9.9" transform="matrix(-1 -1.224647e-16 1.224647e-16 -1 253.3045 29.116)" class="st1" width="3.2" height="9.2"/>
				</g>
			</g>
		</g>
	</g>
	<g>
		<path class="st1" d="M18.5,10.1c0.7,0.3,1.3,0.7,2,1.3L19,13.3c-0.4-0.5-0.8-0.8-1.3-1c-0.5-0.2-1-0.3-1.6-0.3
			c-0.4,0-0.8,0.1-1,0.2c-0.2,0.1-0.4,0.3-0.4,0.6c0,0.2,0.1,0.3,0.4,0.4c0.2,0.1,0.7,0.2,1.2,0.3c1,0.2,1.7,0.4,2.3,0.7
			c0.6,0.3,1,0.6,1.3,1c0.3,0.4,0.4,0.9,0.4,1.6c0,0.7-0.2,1.2-0.6,1.7c-0.4,0.5-0.9,0.8-1.5,1.1c-0.6,0.2-1.4,0.4-2.2,0.4
			c-1.1,0-2.1-0.1-2.8-0.4c-0.7-0.2-1.3-0.6-1.9-1.2l1.4-2.1c0.4,0.5,0.8,0.8,1.3,1c0.5,0.2,1.1,0.3,1.7,0.3c0.9,0,1.4-0.2,1.4-0.7
			c0-0.2-0.1-0.3-0.4-0.4c-0.3-0.1-0.7-0.2-1.3-0.3c-0.8-0.1-1.5-0.3-2-0.5c-0.5-0.2-1-0.5-1.4-0.9c-0.4-0.4-0.5-1-0.5-1.7
			c0-0.6,0.2-1.2,0.5-1.7c0.3-0.5,0.9-0.9,1.5-1.2c0.7-0.3,1.5-0.4,2.4-0.4C17,9.7,17.8,9.8,18.5,10.1z"/>
		<path class="st1" d="M31.4,15.6c0,2.9-1.5,4.3-4.6,4.3c-3.1,0-4.6-1.4-4.6-4.3V9.9h3.1v5.9c0,1.2,0.5,1.8,1.5,1.8
			c1,0,1.5-0.6,1.5-1.8V9.9h3.1V15.6z"/>
		<path class="st1" d="M40.2,10.1c0.7,0.3,1.3,0.7,2,1.3l-1.5,1.9c-0.4-0.5-0.8-0.8-1.3-1s-1-0.3-1.6-0.3c-0.4,0-0.8,0.1-1,0.2
			c-0.2,0.1-0.4,0.3-0.4,0.6c0,0.2,0.1,0.3,0.4,0.4s0.7,0.2,1.2,0.3c1,0.2,1.7,0.4,2.3,0.7c0.6,0.3,1,0.6,1.3,1
			c0.3,0.4,0.4,0.9,0.4,1.6c0,0.7-0.2,1.2-0.6,1.7c-0.4,0.5-0.9,0.8-1.5,1.1c-0.6,0.2-1.4,0.4-2.2,0.4c-1.1,0-2.1-0.1-2.8-0.4
			c-0.7-0.2-1.3-0.6-1.9-1.2l1.4-2.1c0.4,0.5,0.8,0.8,1.3,1c0.5,0.2,1.1,0.3,1.7,0.3c0.9,0,1.4-0.2,1.4-0.7c0-0.2-0.1-0.3-0.4-0.4
			c-0.3-0.1-0.7-0.2-1.3-0.3c-0.8-0.1-1.5-0.3-2-0.5c-0.5-0.2-1-0.5-1.4-0.9c-0.4-0.4-0.5-1-0.5-1.7c0-0.6,0.2-1.2,0.5-1.7
			c0.3-0.5,0.9-0.9,1.5-1.2c0.7-0.3,1.5-0.4,2.4-0.4C38.7,9.7,39.6,9.8,40.2,10.1z"/>
		<path class="st1" d="M51.6,19.1c-0.8,0.5-1.7,0.7-2.9,0.7c-1,0-1.9-0.2-2.6-0.6c-0.7-0.4-1.3-1-1.7-1.7c-0.4-0.8-0.6-1.7-0.6-2.7
			s0.2-2,0.6-2.7c0.4-0.8,1-1.3,1.7-1.7c0.7-0.4,1.6-0.6,2.6-0.6c1.1,0,2.1,0.2,2.9,0.7c0.8,0.5,1.3,1.2,1.5,2.1l-2.6,1.1
			c-0.1-0.6-0.3-1-0.5-1.2c-0.2-0.2-0.6-0.3-1.1-0.3c-0.6,0-1.1,0.2-1.4,0.7c-0.3,0.5-0.5,1.1-0.5,2.1c0,1.8,0.6,2.8,1.9,2.8
			c0.5,0,0.9-0.1,1.1-0.4c0.3-0.2,0.4-0.6,0.5-1.1l2.7,0.7C52.9,17.8,52.3,18.6,51.6,19.1z"/>
		<path class="st1" d="M59.2,16.3H58v3.4h-3V9.9h5.1c1.3,0,2.2,0.3,2.9,0.8c0.7,0.5,1,1.4,1,2.4c0,1.4-0.6,2.4-1.8,2.9l2.4,3.8h-3.3
			L59.2,16.3z M58,14.2h1.5c0.5,0,0.9-0.1,1.1-0.2c0.2-0.2,0.3-0.4,0.3-0.8c0-0.4-0.1-0.7-0.3-0.8c-0.2-0.2-0.6-0.3-1.1-0.3H58V14.2
			z"/>
		<path class="st1" d="M69.2,19.7h-3.1V9.9h3.1V19.7z M70.1,6.6L68.7,9h-2.2l0.8-2.5H70.1z"/>
		<path class="st1" d="M71.8,9.9h5.2c2.4,0,3.6,0.9,3.6,2.6c0,0.6-0.2,1.1-0.5,1.5c-0.4,0.4-0.9,0.6-1.6,0.7v0
			c0.8,0.1,1.4,0.4,1.8,0.8c0.4,0.4,0.6,0.9,0.6,1.6c0,0.9-0.3,1.5-0.9,2c-0.6,0.4-1.5,0.7-2.7,0.7h-5.6V9.9z M76.4,13.8
			c0.8,0,1.2-0.3,1.2-0.9c0-0.6-0.4-0.9-1.2-0.9h-1.7v1.8H76.4z M76.7,17.7c0.8,0,1.2-0.3,1.2-0.9c0-0.6-0.4-0.9-1.2-0.9h-1.9v1.8
			H76.7z"/>
		<path class="st1" d="M91.1,17.4v2.3h-8.2V9.9h8v2.3H86v1.6h3.9v2.1H86v1.6H91.1z"/>
		<path class="st1" d="M101.9,12.1h-3.1v7.6h-3.1v-7.6h-3.2V9.9h9.4V12.1z"/>
		<path class="st1" d="M112,17.4v2.3h-8.2V9.9h8v2.3h-4.9v1.6h3.9v2.1h-3.9v1.6H112z"/>
	</g>
</g>
</svg>
