<?xml version="1.0" encoding="utf-8"?>
<!-- Generator: Adobe Illustrator 24.3.0, SVG Export Plug-In . SVG Version: 6.00 Build 0)  -->
<svg version="1.1" id="Capa_1" xmlns="http://www.w3.org/2000/svg" xmlns:xlink="http://www.w3.org/1999/xlink" x="0px" y="0px"
	 viewBox="0 0 53.7 53.7" style="enable-background:new 0 0 53.7 53.7;" xml:space="preserve">
<style type="text/css">
	.st0{fill:#FFFFFF;}
	.st1{fill:#F7B318;}
	.st2{fill:#E5A324;}
</style>
<g>
	<rect x="12.7" y="12.8" class="st0" width="32.2" height="30"/>
	<g>
		<path class="st1" d="M26.8,0C12,0,0,12,0,26.8c0,14.8,12,26.8,26.8,26.8c2.2,0,5.4,0,8.9,0l-22-22V22H22v-8.4h9.6l22,22
			c0-3.5,0-6.7,0-8.9C53.7,12,41.7,0,26.8,0z"/>
		<path class="st2" d="M31.7,22H40v9.6h-8.4V40H22v-8.4h-8.4l22,22c8.3,0,18,0,18,0s0-9.7,0-18l-22-22V22z"/>
	</g>
	<g>
		<g>
			
				<rect x="20.8" y="9.2" transform="matrix(-1.836970e-16 1 -1 -1.836970e-16 53.7396 4.427518e-02)" class="st0" width="12.2" height="35.3"/>
		</g>
		<g>
			
				<rect x="20.8" y="9.2" transform="matrix(-1 -1.224647e-16 1.224647e-16 -1 53.6953 53.7839)" class="st0" width="12.2" height="35.3"/>
		</g>
	</g>
</g>
</svg>
